<?xml version="1.0" encoding="UTF-8" standalone="no"?>
<svg
   xmlns:dc="http://purl.org/dc/elements/1.1/"
   xmlns:cc="http://creativecommons.org/ns#"
   xmlns:rdf="http://www.w3.org/1999/02/22-rdf-syntax-ns#"
   xmlns:svg="http://www.w3.org/2000/svg"
   xmlns="http://www.w3.org/2000/svg"
   xmlns:sodipodi="http://sodipodi.sourceforge.net/DTD/sodipodi-0.dtd"
   xmlns:inkscape="http://www.inkscape.org/namespaces/inkscape"
   version="1.1"
   id="svg10"
   width="791"
   height="1024"
   viewBox="0 0 791 1024"
   sodipodi:docname="fc_pi_41735_lg.svg"
   inkscape:version="1.0.2-2 (e86c870879, 2021-01-15)">
  <metadata
     id="metadata16">
    <rdf:RDF>
      <cc:Work
         rdf:about="">
        <dc:format>image/svg+xml</dc:format>
        <dc:type
           rdf:resource="http://purl.org/dc/dcmitype/StillImage" />
        <dc:title></dc:title>
      </cc:Work>
    </rdf:RDF>
  </metadata>
  <defs
     id="defs14" />
  <sodipodi:namedview
     pagecolor="#ffffff"
     bordercolor="#666666"
     borderopacity="1"
     objecttolerance="10"
     gridtolerance="10"
     guidetolerance="10"
     inkscape:pageopacity="0"
     inkscape:pageshadow="2"
     inkscape:window-width="1366"
     inkscape:window-height="705"
     id="namedview12"
     showgrid="false"
     inkscape:zoom="0.52539062"
     inkscape:cx="290.81599"
     inkscape:cy="435.86617"
     inkscape:window-x="-8"
     inkscape:window-y="-8"
     inkscape:window-maximized="1"
     inkscape:current-layer="g22" />
  <g
     inkscape:groupmode="layer"
     inkscape:label="Image"
     id="g18">
    <g
       id="g22">
      <path
         style="fill:#d0d0d0;fill-opacity:1"
         d="m 215.75,802.29427 c 1.2375,-0.23836 3.2625,-0.23836 4.5,0 1.2375,0.23835 0.225,0.43337 -2.25,0.43337 -2.475,0 -3.4875,-0.19502 -2.25,-0.43337 z M 652,775.68709 c 0,-0.1721 1.4625,-1.6346 3.25,-3.25 l 3.25,-2.93709 -2.93709,3.25 C 652.82513,775.77946 652,776.45965 652,775.68709 Z M 267.15789,397 c 0,-1.375 0.22698,-1.9375 0.50439,-1.25 0.27741,0.6875 0.27741,1.8125 0,2.5 -0.27741,0.6875 -0.50439,0.125 -0.50439,-1.25 z m 0.92106,-25.58333 c 0.048,-1.16495 0.28494,-1.4019 0.60416,-0.60417 0.28887,0.72187 0.25335,1.58438 -0.0789,1.91667 -0.33229,0.33229 -0.56864,-0.25834 -0.52522,-1.3125 z M 168,249.62244 c 0,-0.20765 0.7875,-0.99515 1.75,-1.75 1.58606,-1.24387 1.62143,-1.2085 0.37756,0.37756 C 168.82119,249.91575 168,250.44548 168,249.62244 Z m 115.80735,-42.3699 c 6.76904,-0.17326 17.56904,-0.17273 24,10e-4 6.43096,0.17391 0.89265,0.31567 -12.30735,0.31502 -13.2,-6.6e-4 -18.46169,-0.14295 -11.69265,-0.31621 z m 43.99013,0.003 c 4.56362,-0.18572 11.76362,-0.18468 16,0.002 4.23639,0.18698 0.50252,0.33893 -8.29748,0.33766 -8.8,-0.001 -12.26613,-0.15425 -7.70252,-0.33996 z m 32,0 c 4.56362,-0.18572 11.76362,-0.18468 16,0.002 4.23639,0.18698 0.50252,0.33893 -8.29748,0.33766 -8.8,-0.001 -12.26613,-0.15425 -7.70252,-0.33996 z m 32,0 c 4.56362,-0.18572 11.76362,-0.18468 16,0.002 4.23639,0.18698 0.50252,0.33893 -8.29748,0.33766 -8.8,-0.001 -12.26613,-0.15425 -7.70252,-0.33996 z m 36.00987,-0.003 c 6.76904,-0.17326 17.56904,-0.17273 24,10e-4 6.43096,0.17391 0.89265,0.31567 -12.30735,0.31502 -13.2,-6.6e-4 -18.46169,-0.14295 -11.69265,-0.31621 z m 48,0 c 6.76904,-0.17326 17.56904,-0.17273 24,10e-4 6.43096,0.17391 0.89265,0.31567 -12.30735,0.31502 -13.2,-6.6e-4 -18.46169,-0.14295 -11.69265,-0.31621 z m 48,0 c 6.76904,-0.17326 17.56904,-0.17273 24,10e-4 6.43096,0.17391 0.89265,0.31567 -12.30735,0.31502 -13.2,-6.6e-4 -18.46169,-0.14295 -11.69265,-0.31621 z m 52.00562,-0.001 c 8.97214,-0.1659 23.37214,-0.16557 32,7.3e-4 8.62787,0.1663 1.28703,0.30204 -16.31297,0.30164 -17.6,-4e-4 -24.65916,-0.13647 -15.68703,-0.30237 z m 64,0 c 8.97214,-0.1659 23.37214,-0.16557 32,7.3e-4 8.62787,0.1663 1.28703,0.30204 -16.31297,0.30164 -17.6,-4e-4 -24.65916,-0.13647 -15.68703,-0.30237 z m 52.93703,0.0113 c 2.8875,-0.202 7.6125,-0.202 10.5,0 2.8875,0.202 0.525,0.36728 -5.25,0.36728 -5.775,0 -8.1375,-0.16528 -5.25,-0.36728 z"
         id="path38" />
      <path
         style="fill:#b9b9b9;fill-opacity:1"
         d="m 163.15789,743 c 0,-1.375 0.22698,-1.9375 0.50439,-1.25 0.27741,0.6875 0.27741,1.8125 0,2.5 -0.27741,0.6875 -0.50439,0.125 -0.50439,-1.25 z M 664,683.62244 c 0,-0.20765 0.7875,-0.99515 1.75,-1.75 1.58606,-1.24387 1.62143,-1.2085 0.37756,0.37756 C 664.82119,683.91575 664,684.44548 664,683.62244 Z M 466.07895,606.41667 c 0.048,-1.16495 0.28494,-1.4019 0.60416,-0.60417 0.28887,0.72187 0.25335,1.58438 -0.0789,1.91667 -0.33229,0.33229 -0.56864,-0.25834 -0.52522,-1.3125 z M 538.15789,598 c 0,-1.375 0.22698,-1.9375 0.50439,-1.25 0.27741,0.6875 0.27741,1.8125 0,2.5 -0.27741,0.6875 -0.50439,0.125 -0.50439,-1.25 z m 0.16218,-49 c 0,-3.575 0.1815,-5.0375 0.40333,-3.25 0.22182,1.7875 0.22182,4.7125 0,6.5 -0.22183,1.7875 -0.40333,0.325 -0.40333,-3.25 z m -72.12512,-10.5 c 0.0204,-1.65 0.2445,-2.20394 0.49804,-1.23097 0.25354,0.97297 0.23687,2.32297 -0.0371,3 -0.27393,0.67703 -0.48137,-0.11903 -0.46099,-1.76903 z M 539.15789,516 c 0,-1.375 0.22698,-1.9375 0.50439,-1.25 0.27741,0.6875 0.27741,1.8125 0,2.5 -0.27741,0.6875 -0.50439,0.125 -0.50439,-1.25 z m -72.07894,-1.58333 c 0.048,-1.16495 0.28494,-1.4019 0.60416,-0.60417 0.28887,0.72187 0.25335,1.58438 -0.0789,1.91667 -0.33229,0.33229 -0.56864,-0.25834 -0.52522,-1.3125 z m 74,-35 c 0.048,-1.16495 0.28494,-1.4019 0.60416,-0.60417 0.28887,0.72187 0.25335,1.58438 -0.0789,1.91667 -0.33229,0.33229 -0.56864,-0.25834 -0.52522,-1.3125 z m 1,-13 c 0.048,-1.16495 0.28494,-1.4019 0.60416,-0.60417 0.28887,0.72187 0.25335,1.58438 -0.0789,1.91667 -0.33229,0.33229 -0.56864,-0.25834 -0.52522,-1.3125 z m -209,-19 c 0.048,-1.16495 0.28494,-1.4019 0.60416,-0.60417 0.28887,0.72187 0.25335,1.58438 -0.0789,1.91667 -0.33229,0.33229 -0.56864,-0.25834 -0.52522,-1.3125 z m 1,-14 c 0.048,-1.16495 0.28494,-1.4019 0.60416,-0.60417 0.28887,0.72187 0.25335,1.58438 -0.0789,1.91667 -0.33229,0.33229 -0.56864,-0.25834 -0.52522,-1.3125 z M 266.15789,418 c 0,-1.375 0.22698,-1.9375 0.50439,-1.25 0.27741,0.6875 0.27741,1.8125 0,2.5 -0.27741,0.6875 -0.50439,0.125 -0.50439,-1.25 z m 70.92106,-29.58333 c 0.048,-1.16495 0.28494,-1.4019 0.60416,-0.60417 0.28887,0.72187 0.25335,1.58438 -0.0789,1.91667 -0.33229,0.33229 -0.56864,-0.25834 -0.52522,-1.3125 z M 268.15789,375 c 0,-1.375 0.22698,-1.9375 0.50439,-1.25 0.27741,0.6875 0.27741,1.8125 0,2.5 -0.27741,0.6875 -0.50439,0.125 -0.50439,-1.25 z m 72,-32 c 0,-1.375 0.22698,-1.9375 0.50439,-1.25 0.27741,0.6875 0.27741,1.8125 0,2.5 -0.27741,0.6875 -0.50439,0.125 -0.50439,-1.25 z m -70.87188,-6.5 c 0.008,-2.75 0.20172,-3.75631 0.43157,-2.23625 0.22986,1.52006 0.22371,3.77006 -0.0136,5 -0.23736,1.22994 -0.42542,-0.0138 -0.41792,-2.76375 z m 439.17566,-82 c -2.1e-4,-25.85 0.12905,-36.56849 0.28724,-23.81886 0.15819,12.74963 0.15835,33.89963 3.7e-4,47 -0.15799,13.10037 -0.28741,2.66886 -0.28761,-23.18114 z M 244.8125,298.31689 c 0.72187,-0.28887 1.58437,-0.25335 1.91667,0.0789 0.33229,0.33229 -0.25834,0.56864 -1.3125,0.52522 -1.16495,-0.048 -1.4019,-0.28494 -0.60417,-0.60416 z"
         id="path36" />
      <path
         style="fill:#a3a3a3;fill-opacity:1"
         d="m 540.07895,493.41667 c 0.048,-1.16495 0.28494,-1.4019 0.60416,-0.60417 0.28887,0.72187 0.25335,1.58438 -0.0789,1.91667 -0.33229,0.33229 -0.56864,-0.25834 -0.52522,-1.3125 z"
         id="path34" />
      <path
         style="fill:#8c8c8c;fill-opacity:1"
         d="m 466.07895,602.41667 c 0.048,-1.16495 0.28494,-1.4019 0.60416,-0.60417 0.28887,0.72187 0.25335,1.58438 -0.0789,1.91667 -0.33229,0.33229 -0.56864,-0.25834 -0.52522,-1.3125 z M 538.19495,540.5 c 0.0204,-1.65 0.2445,-2.20394 0.49804,-1.23097 0.25354,0.97297 0.23687,2.32297 -0.0371,3 -0.27393,0.67703 -0.48137,-0.11903 -0.46099,-1.76903 z m 0.884,-30.08333 c 0.048,-1.16495 0.28494,-1.4019 0.60416,-0.60417 0.28887,0.72187 0.25335,1.58438 -0.0789,1.91667 -0.33229,0.33229 -0.56864,-0.25834 -0.52522,-1.3125 z m -205,-80 c 0.048,-1.16495 0.28494,-1.4019 0.60416,-0.60417 0.28887,0.72187 0.25335,1.58438 -0.0789,1.91667 -0.33229,0.33229 -0.56864,-0.25834 -0.52522,-1.3125 z m 3,-45 c 0.048,-1.16495 0.28494,-1.4019 0.60416,-0.60417 0.28887,0.72187 0.25335,1.58438 -0.0789,1.91667 -0.33229,0.33229 -0.56864,-0.25834 -0.52522,-1.3125 z M 102.75,385.33772 c 0.6875,-0.27741 1.8125,-0.27741 2.5,0 0.6875,0.27741 0.125,0.50439 -1.25,0.50439 -1.375,0 -1.9375,-0.22698 -1.25,-0.50439 z m 6,0 c 0.6875,-0.27741 1.8125,-0.27741 2.5,0 0.6875,0.27741 0.125,0.50439 -1.25,0.50439 -1.375,0 -1.9375,-0.22698 -1.25,-0.50439 z m 6,0 c 0.6875,-0.27741 1.8125,-0.27741 2.5,0 0.6875,0.27741 0.125,0.50439 -1.25,0.50439 -1.375,0 -1.9375,-0.22698 -1.25,-0.50439 z m 153.32895,-3.92105 c 0.048,-1.16495 0.28494,-1.4019 0.60416,-0.60417 0.28887,0.72187 0.25335,1.58438 -0.0789,1.91667 -0.33229,0.33229 -0.56864,-0.25834 -0.52522,-1.3125 z m 1.116,-34.91667 c 0.0204,-1.65 0.2445,-2.20394 0.49804,-1.23097 0.25354,0.97297 0.23687,2.32297 -0.0371,3 -0.27393,0.67703 -0.48137,-0.11903 -0.46099,-1.76903 z"
         id="path32" />
      <path
         style="fill:#767676;fill-opacity:1"
         d="m 179.87244,786.25 c -1.24387,-1.58606 -1.2085,-1.62143 0.37756,-0.37756 0.9625,0.75485 1.75,1.54235 1.75,1.75 0,0.82304 -0.82119,0.29331 -2.12756,-1.37244 z m 386,-106 c -1.24387,-1.58606 -1.2085,-1.62143 0.37756,-0.37756 0.9625,0.75485 1.75,1.54235 1.75,1.75 0,0.82304 -0.82119,0.29331 -2.12756,-1.37244 z m 140.20651,-44.83333 c 0.048,-1.16495 0.28494,-1.4019 0.60416,-0.60417 0.28887,0.72187 0.25335,1.58438 -0.0789,1.91667 -0.33229,0.33229 -0.56864,-0.25834 -0.52522,-1.3125 z m -239,-13 c 0.048,-1.16495 0.28494,-1.4019 0.60416,-0.60417 0.28887,0.72187 0.25335,1.58438 -0.0789,1.91667 -0.33229,0.33229 -0.56864,-0.25834 -0.52522,-1.3125 z M 466.15789,599 c 0,-1.375 0.22698,-1.9375 0.50439,-1.25 0.27741,0.6875 0.27741,1.8125 0,2.5 -0.27741,0.6875 -0.50439,0.125 -0.50439,-1.25 z m 0,-52 c 0,-1.375 0.22698,-1.9375 0.50439,-1.25 0.27741,0.6875 0.27741,1.8125 0,2.5 -0.27741,0.6875 -0.50439,0.125 -0.50439,-1.25 z m 72,-11 c 0,-1.375 0.22698,-1.9375 0.50439,-1.25 0.27741,0.6875 0.27741,1.8125 0,2.5 -0.27741,0.6875 -0.50439,0.125 -0.50439,-1.25 z m -70.07894,-33.58333 c 0.048,-1.16495 0.28494,-1.4019 0.60416,-0.60417 0.28887,0.72187 0.25335,1.58438 -0.0789,1.91667 -0.33229,0.33229 -0.56864,-0.25834 -0.52522,-1.3125 z m 72,-12 c 0.048,-1.16495 0.28494,-1.4019 0.60416,-0.60417 0.28887,0.72187 0.25335,1.58438 -0.0789,1.91667 -0.33229,0.33229 -0.56864,-0.25834 -0.52522,-1.3125 z m -274,-68 c 0.048,-1.16495 0.28494,-1.4019 0.60416,-0.60417 0.28887,0.72187 0.25335,1.58438 -0.0789,1.91667 -0.33229,0.33229 -0.56864,-0.25834 -0.52522,-1.3125 z m 3.116,-70.91667 c 0.0204,-1.65 0.2445,-2.20394 0.49804,-1.23097 0.25354,0.97297 0.23687,2.32297 -0.0371,3 -0.27393,0.67703 -0.48137,-0.11903 -0.46099,-1.76903 z M 153,341.62244 c 0,-0.20765 0.7875,-0.99515 1.75,-1.75 1.58606,-1.24387 1.62143,-1.2085 0.37756,0.37756 C 153.82119,341.91575 153,342.44548 153,341.62244 Z M 261.75,207.29427 c 1.2375,-0.23836 3.2625,-0.23836 4.5,0 1.2375,0.23835 0.225,0.43337 -2.25,0.43337 -2.475,0 -3.4875,-0.19502 -2.25,-0.43337 z"
         id="path30" />
      <path
         style="fill:#606060;fill-opacity:1"
         d="m 514.87244,782.25 c -1.24387,-1.58606 -1.2085,-1.62143 0.37756,-0.37756 0.9625,0.75485 1.75,1.54235 1.75,1.75 0,0.82304 -0.82119,0.29331 -2.12756,-1.37244 z M 466.19495,594.5 c 0.0204,-1.65 0.2445,-2.20394 0.49804,-1.23097 0.25354,0.97297 0.23687,2.32297 -0.0371,3 -0.27393,0.67703 -0.48137,-0.11903 -0.46099,-1.76903 z M 466.232,552 c 0,-1.925 0.2058,-2.7125 0.45733,-1.75 0.25152,0.9625 0.25152,2.5375 0,3.5 -0.25153,0.9625 -0.45733,0.175 -0.45733,-1.75 z m 71.92589,-20 c 0,-1.375 0.22698,-1.9375 0.50439,-1.25 0.27741,0.6875 0.27741,1.8125 0,2.5 -0.27741,0.6875 -0.50439,0.125 -0.50439,-1.25 z m 0.92106,-24.58333 c 0.048,-1.16495 0.28494,-1.4019 0.60416,-0.60417 0.28887,0.72187 0.25335,1.58438 -0.0789,1.91667 -0.33229,0.33229 -0.56864,-0.25834 -0.52522,-1.3125 z m -208,-37 c 0.048,-1.16495 0.28494,-1.4019 0.60416,-0.60417 0.28887,0.72187 0.25335,1.58438 -0.0789,1.91667 -0.33229,0.33229 -0.56864,-0.25834 -0.52522,-1.3125 z m -63,-86 c 0.048,-1.16495 0.28494,-1.4019 0.60416,-0.60417 0.28887,0.72187 0.25335,1.58438 -0.0789,1.91667 -0.33229,0.33229 -0.56864,-0.25834 -0.52522,-1.3125 z m 73,-63 c 0.048,-1.16495 0.28494,-1.4019 0.60416,-0.60417 0.28887,0.72187 0.25335,1.58438 -0.0789,1.91667 -0.33229,0.33229 -0.56864,-0.25834 -0.52522,-1.3125 z"
         id="path28" />
      <path
         style="fill:#494949;fill-opacity:1"
         d="m 466.25218,588.5 c 0.0111,-2.2 0.21589,-2.98225 0.45508,-1.73834 0.23919,1.24391 0.23011,3.04391 -0.0202,4 -0.25029,0.95609 -0.446,-0.0617 -0.4349,-2.26166 z m -0.0572,-29 c 0.0204,-1.65 0.2445,-2.20394 0.49804,-1.23097 0.25354,0.97297 0.23687,2.32297 -0.0371,3 -0.27393,0.67703 -0.48137,-0.11903 -0.46099,-1.76903 z m -198.116,-172.08333 c 0.048,-1.16495 0.28494,-1.4019 0.60416,-0.60417 0.28887,0.72187 0.25335,1.58438 -0.0789,1.91667 -0.33229,0.33229 -0.56864,-0.25834 -0.52522,-1.3125 z"
         id="path26" />
      <path
         style="fill:#333333;fill-opacity:1;stroke-width:1.3264"
         d="M 574.10972,893.25584 C 552.4338,889.29987 537.74995,880.52892 521.65242,861.92205 508.45935,846.67238 502.20709,836.35626 493.47105,815.42326 472.95456,766.2623 461.8799,697.73884 458.98766,602.0604 455.69674,493.19311 466.56333,340.52725 487.67341,199.05038 l 4.10534,-27.51345 h -92.64892 -92.64894 l -0.67016,6.07439 c -0.36858,3.34092 -3.47745,56.2418 -6.9086,117.5575 -9.28205,165.8731 -17.32863,262.05791 -28.27812,338.02245 -5.68612,39.44879 -20.41878,122.1007 -25.24094,141.60452 -9.69361,39.20704 -21.28798,65.04714 -38.14456,85.01186 -7.88403,9.33775 -11.9339,12.84948 -20.31069,17.61177 -37.28185,21.19517 -75.4499,7.63722 -92.283451,-32.78066 -11.715599,-28.1295 -11.357153,-53.7609 1.160833,-83.00481 5.962598,-13.92955 11.824268,-23.99117 29.447798,-50.54744 33.42349,-50.36467 43.26419,-72.9174 56.62328,-129.76832 20.60317,-87.67887 32.10801,-204.07919 34.04456,-344.44613 0.38189,-27.68029 0.86134,-53.67014 1.06546,-57.75523 0.43451,-8.69611 0.95907,-8.292 -13.71961,-10.56934 -44.09082,-6.84049 -89.09049,12.91699 -125.373822,55.04641 -12.943741,15.02928 -26.950179,36.33541 -36.1269,54.95504 l -6.430088,13.0467 H 20.127645 4.9194284 L 7.9878896,278.59366 C 26.834444,198.73524 61.721508,127.58767 100.86065,89.191895 125.18775,65.326838 146.94564,52.082389 177.57746,42.492899 L 187.5433,39.37303 471.58517,38.973021 755.62704,38.57301 v 66.48196 66.48196 h -90.40223 c -49.72122,0 -90.69097,0.54247 -91.04389,1.20549 -1.47153,2.76459 -7.58408,63.41279 -18.53325,183.88502 -6.73862,74.14406 -9.28878,129.67135 -9.25541,201.52713 0.0221,47.80844 1.16473,64.70711 5.95628,88.09504 5.48917,26.79314 14.87487,49.78368 26.58618,65.1237 7.86765,10.30541 22.10739,20.98628 34.25346,25.69266 9.41892,3.64968 11.54528,3.92031 31.03782,3.95037 19.53396,0.0302 21.54037,-0.21977 30.15829,-3.75608 13.62746,-5.59197 20.59257,-10.58296 29.7735,-21.33489 12.44851,-14.57861 20.28019,-35.23689 22.56004,-59.50845 l 0.83906,-8.93294 h 12.98074 12.98073 l -0.85854,13.20538 c -1.82186,28.02201 -8.73488,67.31802 -16.8424,95.73803 -4.47011,15.66949 -15.9987,43.77452 -23.32049,56.85195 -23.2824,41.58472 -57.76223,69.31579 -97.03195,78.03983 -12.10417,2.68903 -32.10156,3.6255 -41.35526,1.93667 z"
         id="path24" />
    </g>
  </g>
</svg>
